{"accessors":[{"bufferView":2,"componentType":5126,"count":2493,"max":[15.193892478942871,34.25222396850586,4.165726661682129],"min":[-15.193892478942871,-0.0000010472944040884613,-4.8741631507873535],"type":"VEC3"},{"bufferView":2,"byteOffset":29916,"componentType":5126,"count":2493,"max":[1.0000001192092896,0.9999231100082397,1],"min":[-1.0000001192092896,-1.0000001192092896,-1.0000001192092896],"type":"VEC3"},{"bufferView":3,"componentType":5126,"count":2493,"max":[1,0.9997479319572449,0.999954104423523,1],"min":[-1,-0.9997478723526001,-1,-1],"type":"VEC4"},{"bufferView":1,"componentType":5126,"count":2493,"max":[0.998759388923645,0.9984399676322937],"min":[0.007352769374847412,0.009926676750183105],"type":"VEC2"},{"bufferView":0,"componentType":5125,"count":9684,"max":[2492],"min":[0],"type":"SCALAR"},{"bufferView":4,"componentType":5126,"count":1,"max":[1,0,0,0,0,1,0,0,0,0,1,0,0,0,0,1],"min":[1,0,0,0,0,1,0,0,0,0,1,0,0,0,0,1],"type":"MAT4"}],"asset":{"extras":{"author":"firoh (https://sketchfab.com/firoh)","license":"CC-BY-4.0 (http://creativecommons.org/licenses/by/4.0/)","source":"https://sketchfab.com/models/85751b390d1b458ba405320415b33d36","title":"Cat Girl"},"generator":"Sketchfab-3.54.8-rc1","version":"2.0"},"bufferViews":[{"buffer":0,"byteLength":38736,"byteOffset":0,"name":"floatBufferViews","target":34963},{"buffer":0,"byteLength":19944,"byteOffset":38736,"byteStride":8,"name":"floatBufferViews","target":34962},{"buffer":0,"byteLength":59832,"byteOffset":58680,"byteStride":12,"name":"floatBufferViews","target":34962},{"buffer":0,"byteLength":39888,"byteOffset":118512,"byteStride":16,"name":"floatBufferViews","target":34962},{"buffer":0,"byteLength":64,"byteOffset":158400,"byteStride":64,"name":"floatBufferViews"}],"buffers":[{"byteLength":158464,"uri":"data:application/octet-stream;base64,"}],"images":[{"uri":"data:application/octet-stream;base64,"}],"materials":[{"doubleSided":true,"name":"Gato","pbrMetallicRoughness":{"baseColorFactor":[1,1,1,1],"baseColorTexture":{"index":0,"texCoord":0},"metallicFactor":0,"roughnessFactor":1}}],"meshes":[{"primitives":[{"attributes":{"NORMAL":1,"POSITION":0,"TANGENT":2,"TEXCOORD_0":3},"indices":4,"material":0,"mode":4}]}],"nodes":[{"children":[1],"name":"RootNode (gltf orientation matrix)","rotation":[-0.7071067811865475,0,0,0.7071067811865476]},{"children":[2],"name":"RootNode (model correction matrix)"},{"children":[3],"matrix":[1,0,0,0,0,0,1,0,0,-1,0,0,0,0,0,1],"name":"CatGirl.fbx"},{"children":[4],"name":"RootNode"},{"children":[5],"name":"Gato1"},{"children":[6],"name":"nurbsCircle18"},{"children":[7],"name":"Lumbar"},{"children":[8],"name":"Cadera"},{"children":[9,10],"name":""},{"name":"_rootJoint"},{"children":[11],"matrix":[1,-4.930380657631324e-32,-4.930380657631324e-32,0,4.930380657631323e-32,0.9999999999999999,1.055990272175824e-31,0,4.930380657631323e-32,-1.055990272175824e-31,0.9999999999999999,0,0,0,2.7755575615628914e-16,1],"name":""},{"mesh":0,"name":""}],"samplers":[{"magFilter":9729,"minFilter":9987,"wrapS":10497,"wrapT":10497}],"scene":0,"scenes":[{"name":"OSG_Scene","nodes":[0]}],"skins":[{"inverseBindMatrices":5,"joints":[9],"skeleton":9}],"textures":[{"sampler":0,"source":0}]}